# Made using Asset Forge (www.assetforge.io) version 1.3 

mtllib barrel.mtl 

g engine_barrelTop_87

v 0.18 -1.602965E-31 0.5
v 0.18 -1.602965E-31 -7.219114E-16
v -0.18 -1.602965E-31 0.5
v -0.18 -1.602965E-31 -7.219114E-16
v 0.1058 0.445 -7.219114E-16
v 0.18 0.135 -7.219114E-16
v 0.1058 0.445 0.5
v 0.18 0.135 0.5
v -0.18 0.135 -7.219114E-16
v -0.1058 0.445 -7.219114E-16
v -0.18 0.135 0.5
v -0.1058 0.445 0.5
v 0.18 -1.602965E-31 -0.5
v -0.1087942 0.07120579 -0.5
v -0.18 -1.602965E-31 -0.5
v -0.18 0.135 -0.5
v -0.1087942 0.1265969 -0.5
v -0.04962635 0.3737942 -0.5
v -0.1058 0.445 -0.5
v 0.04962635 0.3737942 -0.5
v 0.1087942 0.07120579 -0.5
v 0.18 0.135 -0.5
v 0.1087942 0.1265969 -0.5
v 0.1058 0.445 -0.5
v 0.1087942 0.1265969 -0.37
v 0.04962635 0.3737942 -0.37
v -0.04962635 0.3737942 -0.37
v -0.1087942 0.1265969 -0.37
vn 0 -1 0
vn 0.9725294 0.2327796 0
vn 0.9931086 0.1171975 0
vn 0.9969478 0.07807127 0
vn 1 0 0
vn -0.9931086 0.1171975 0
vn -0.9725294 0.2327796 0
vn -0.9877345 0.1561425 0
vn -1 0 0
vn 0 0 -1
vn 0 1 0
vn 0 0 1
vn -0.9969478 0.07807127 0
vn 0.9877345 0.1561425 0
vn -0.9931086 -0.1171975 0
vn -0.9725294 -0.2327796 0
vn -0.9877345 -0.1561425 0
vn 0.9725294 -0.2327796 0
vn 0.9877345 -0.1561425 0
vn 0.9931086 -0.1171975 0
vn 0 0.919971 -0.3919865
vt -0.18 -0.5
vt -0.18 7.219114E-16
vt 0.18 -0.5
vt 0.18 7.219114E-16
vt 7.219114E-16 0.445
vt 7.219114E-16 0.135
vt -0.5 0.445
vt -0.5 0.135
vt 7.219114E-16 -1.602965E-31
vt -0.5 -1.602965E-31
vt -7.219114E-16 0.135
vt -7.219114E-16 0.445
vt 0.5 0.135
vt 0.5 0.445
vt 0.5 -1.602965E-31
vt -7.219114E-16 -1.602965E-31
vt -0.18 -1.602965E-31
vt 0.1087942 0.07120579
vt 0.18 -1.602965E-31
vt 0.18 0.135
vt 0.1087942 0.1265969
vt 0.04962635 0.3737942
vt 0.1058 0.445
vt -0.04962635 0.3737942
vt -0.1087942 0.07120579
vt -0.18 0.135
vt -0.1087942 0.1265969
vt -0.1058 0.445
vt -0.1058 -7.219114E-16
vt -0.1058 0.5
vt 0.1058 -7.219114E-16
vt 0.1058 0.5
vt -0.1058 -0.5
vt 0.1058 -0.5
vt -0.18 0.5
vt 0.18 0.5
vt -0.5 0.1265969
vt -0.5 0.3737942
vt -0.37 0.1265969
vt -0.37 0.3737942
vt 0.5 0.3737942
vt 0.5 0.1265969
vt 0.37 0.3737942
vt 0.37 0.1265969
vt -0.04962635 0.37
vt -0.04962635 0.5
vt 0.04962635 0.37
vt 0.04962635 0.5
vt -0.5 0.07120579
vt 0.5 0.07120579
vt -0.1087942 -0.5
vt -0.1087942 -0.37
vt 0.1087942 -0.5
vt 0.1087942 -0.37

usemtl customMaterial4 (Instance)
usemap customMaterial4 (Instance)
f 3/3/1 2/2/1 1/1/1
f 2/2/1 3/3/1 4/4/1
f 7/7/2 6/6/3 5/5/2
f 6/6/3 7/7/2 8/8/4
f 8/8/4 2/9/5 6/6/3
f 2/9/5 8/8/4 1/10/5
f 11/13/8 10/12/7 9/11/6
f 10/12/7 11/13/8 12/14/7
f 9/11/6 3/15/9 11/13/8
f 3/15/9 9/11/6 4/16/9
f 15/19/10 14/18/10 13/17/10
f 14/18/10 15/19/10 16/20/10
f 14/18/10 16/20/10 17/21/10
f 17/21/10 16/20/10 18/22/10
f 18/22/10 16/20/10 19/23/10
f 18/22/10 19/23/10 20/24/10
f 21/25/10 13/17/10 14/18/10
f 13/17/10 21/25/10 22/26/10
f 22/26/10 21/25/10 23/27/10
f 22/26/10 23/27/10 20/24/10
f 22/26/10 20/24/10 24/28/10
f 24/28/10 20/24/10 19/23/10
f 10/31/11 7/30/11 5/29/11
f 7/30/11 10/31/11 12/32/11
f 8/20/12 3/17/12 1/19/12
f 3/17/12 8/20/12 11/26/12
f 11/26/12 8/20/12 7/23/12
f 11/26/12 7/23/12 12/28/12

usemtl customMaterial3 (Instance)
usemap customMaterial3 (Instance)
f 4/16/9 16/8/13 15/10/9
f 16/8/13 4/16/9 9/11/6
f 9/11/6 19/7/7 16/8/13
f 19/7/7 9/11/6 10/12/7
f 19/34/11 5/29/11 24/33/11
f 5/29/11 19/34/11 10/31/11
f 5/5/2 22/13/14 24/14/2
f 22/13/14 5/5/2 6/6/3
f 6/6/3 13/15/5 22/13/14
f 13/15/5 6/6/3 2/9/5
f 4/4/1 13/35/1 2/2/1
f 13/35/1 4/4/1 15/36/1

usemtl black (Instance)
usemap black (Instance)
f 25/39/17 20/38/16 23/37/15
f 20/38/16 25/39/17 26/40/16
f 27/43/18 17/42/19 18/41/18
f 17/42/19 27/43/18 28/44/20
f 27/47/1 20/46/1 26/45/1
f 20/46/1 27/47/1 18/48/1
f 25/39/17 23/37/15 21/49/9
f 28/44/20 14/50/5 17/42/19
f 14/53/21 25/52/21 21/51/21
f 25/52/21 14/53/21 28/54/21
f 28/21/10 26/24/10 25/27/10
f 26/24/10 28/21/10 27/22/10
