# Made using Asset Forge (www.assetforge.io) version 1.3 

mtllib shield.mtl 

v 0.5038132 1.1 0.2916816
v 0.3977472 1.1 0.3977476
v 0.459619 1.1625 0.2474874
v 0.3535529 1.1625 0.3535534
v -0.3535537 1.1625 -0.3535535
v -0.3977478 1.1 -0.3977477
v -0.2474876 1.1625 -0.4596195
v -0.2916817 1.1 -0.5038137
v 0.3181977 1.1625 0.03535539
v 0.4242637 1.1625 -0.0707106
v -0.03535561 1.1625 -0.3181981
v 0.07071042 1.1625 -0.4242641
v -0.03535551 1.0125 -0.3181981
v -0.3535536 1.0125 -0.3535535
v 0.3181978 1.0125 0.03535539
v 0.353553 1.0125 0.3535534
v 0.4596191 1.0125 0.2474874
v 0.4242638 1.0125 -0.0707106
v 0.07071052 1.0125 -0.4242641
v -0.327037 1.0125 -0.4684584
v -0.2828429 1.0125 -0.4242642
v -0.2916817 1.0125 -0.5038137
v -0.2474875 1.0125 -0.4596195
v 0.0353552 1.0125 -0.3889088
v 0.3889085 1.0125 -0.03535533
v 0.4684579 1.0125 0.3270369
v 0.4242637 1.0125 0.2828428
v 0.5038133 1.0125 0.2916816
v -0.3535529 0.03749985 -0.3535534
v -0.2474869 0.03749985 -0.4596194
v -0.3977472 0.09999979 -0.3977476
v -0.2916811 0.09999985 -0.5038136
v 0.3535537 0.0375002 0.3535535
v 0.3977478 0.1000002 0.3977477
v 0.4596197 0.03750026 0.2474875
v 0.5038138 0.1000003 0.2916817
v 0.3535536 0.1875002 0.3535535
v 0.3181983 0.1875002 0.03535548
v 0.3181984 0.0375002 0.03535548
v -0.035355 0.1875 -0.318198
v -0.0353549 0.03750002 -0.318198
v -0.353553 0.1874998 -0.3535534
v 0.07071114 0.03750002 -0.424264
v 0.4242644 0.0375002 -0.07071051
v 0.4684584 0.1875002 0.3270371
v 0.5038137 0.1875002 0.2916817
v -0.3270365 0.1874998 -0.4684582
v -0.2916811 0.1874998 -0.5038136
v 0.07071103 0.1875 -0.424264
v -0.247487 0.1874998 -0.4596194
v 0.4242643 0.1875002 -0.07071052
v 0.4596196 0.1875002 0.2474875
v 0.4242643 0.1875002 0.2828429
v 0.388909 0.1875002 -0.03535521
v 0.0353557 0.1875 -0.3889087
v -0.2828423 0.1874999 -0.4242641
vn 0.4999994 0.7071071 0.5
vn -0.5000003 0.7071065 -0.5000002
vn -6.258488E-07 1 -1.192093E-07
vn -0.1104318 -5.960464E-08 0.9938837
vn -0.1104318 -5.960464E-08 0.9938837
vn -0.7071069 -3.576279E-07 0.7071066
vn -0.9938837 -5.364418E-07 0.1104313
vn -0.9938838 -5.364418E-07 0.1104314
vn 0.9938837 5.364418E-07 -0.1104313
vn 0.7071069 3.576279E-07 -0.7071066
vn 6.258488E-07 -1 1.192093E-07
vn 0.1104318 5.960464E-08 -0.9938837
vn -0.4999994 -0.7071071 -0.5
vn 0.5000003 -0.7071065 0.5000002
vn 0.7071066 3.874302E-07 0.7071069
vn -0.7071066 -3.874302E-07 -0.7071069
vt -0.5038132 0.2916816
vt -0.3977472 0.3977476
vt -0.459619 0.2474874
vt -0.3535529 0.3535534
vt 0.3535537 -0.3535535
vt 0.3977478 -0.3977477
vt 0.2474876 -0.4596196
vt 0.2916817 -0.5038137
vt -0.3181977 0.03535534
vt -0.4242637 -0.07071065
vt 0.03535561 -0.3181981
vt -0.07071043 -0.4242641
vt -0.03535561 1.1625
vt -0.03535552 1.0125
vt -0.3535537 1.1625
vt -0.3535536 1.0125
vt 0.03535534 1.1625
vt 0.03535536 1.0125
vt -0.3181981 1.1625
vt -0.3181981 1.0125
vt 0.3535534 1.1625
vt 0.3535534 1.0125
vt -0.2474874 1.0125
vt -0.2474874 1.1625
vt 0.07071064 1.0125
vt 0.07071065 1.1625
vt 0.4242641 1.0125
vt 0.4242641 1.1625
vt 0.327037 0.4684584
vt 0.2828428 0.4242642
vt 0.2916817 0.5038137
vt 0.2474875 0.4596195
vt -0.03535519 0.3889088
vt -0.07071052 0.4242641
vt -0.3889085 0.03535531
vt -0.4242638 0.07071064
vt -0.4596191 -0.2474874
vt -0.4684579 -0.3270369
vt -0.4242637 -0.2828428
vt -0.5038133 -0.2916816
vt -0.07071052 1.0125
vt -0.07071043 1.1625
vt 0.2474875 1.0125
vt 0.2474876 1.1625
vt 0.2916817 1.0125
vt 0.5038137 1.1
vt 0.5038137 1.0125
vt 0.4596196 1.1625
vt -0.5038133 1.0125
vt -0.5038132 1.1
vt -0.4596191 1.0125
vt -0.459619 1.1625
vt 0.3535529 0.3535534
vt 0.2474869 0.4596194
vt 0.3977472 0.3977476
vt 0.2916811 0.5038136
vt -0.3535537 -0.3535535
vt -0.3977478 -0.3977477
vt -0.4596197 -0.2474875
vt -0.5038138 -0.2916817
vt 0.3535535 0.1875002
vt 0.3535535 0.03750022
vt 0.03535545 0.1875002
vt 0.03535547 0.03750019
vt -0.318198 0.1875
vt -0.318198 0.0375
vt -0.035355 0.1875
vt -0.0353549 0.0375
vt -0.353553 0.1874998
vt -0.3535529 0.03749983
vt 0.0353549 0.318198
vt -0.07071113 0.424264
vt -0.3181984 -0.03535547
vt -0.4242644 0.07071052
vt 0.3977472 1.1
vt 0.3977478 0.1000002
vt 0.3535529 1.1625
vt 0.3977477 0.1000002
vt 0.353553 1.0125
vt 0.3535537 0.03750022
vt 0.3535536 0.1875002
vt -0.3535535 1.1625
vt -0.3535535 1.0125
vt -0.3977477 1.1
vt -0.3535534 0.1874998
vt -0.3535534 0.03749983
vt -0.3977472 0.09999981
vt -0.3977478 1.1
vt 0.5038133 1.0125
vt 0.4684579 1.0125
vt 0.5038132 1.1
vt 0.4684584 0.1875003
vt 0.5038137 0.1875003
vt 0.5038138 0.1000003
vt 0.2916811 0.09999986
vt 0.3270365 0.1874998
vt 0.3977472 0.09999981
vt 0.3977478 1.1
vt 0.327037 1.0125
vt 0.2916817 1.1
vt 0.2916811 0.1874998
vt -0.07071113 0.03750005
vt -0.07071104 0.1875
vt 0.2474869 0.03749988
vt 0.247487 0.1874999
vt 0.4596194 0.03749988
vt 0.4596194 0.1874999
vt 0.5038136 0.09999986
vt 0.5038136 0.1874998
vt 0.07071052 0.03750025
vt 0.07071054 0.1875002
vt 0.424264 0.03750005
vt 0.424264 0.1875
vt -0.2474875 0.03750027
vt -0.2474875 0.1875003
vt -0.4684584 0.327037
vt -0.4242643 0.2828428
vt -0.5038137 0.2916817
vt -0.4596196 0.2474875
vt -0.388909 -0.03535522
vt -0.4242643 -0.07071054
vt -0.0353557 -0.3889087
vt -0.07071104 -0.424264
vt 0.247487 -0.4596194
vt 0.3270365 -0.4684583
vt 0.2828423 -0.4242641
vt 0.2916811 -0.5038136
vt -0.327037 0.1875003
vt -0.3270369 1.0125
vt -0.2828428 0.1875002
vt -0.2828428 1.0125
vt -0.2916817 0.1000003
vt -0.2916817 0.1875003
vt 0.2828423 0.1874998
vt 0.2828428 1.0125
vt 0.4684584 1.0125
vt 0.4684583 0.1874998
vt 0.4242642 1.0125
vt -0.0353557 0.1875
vt -0.03535519 1.0125
vt 0.03535522 0.1875002
vt 0.03535531 1.0125
vt 0.3889087 0.1875
vt 0.3889088 1.0125

usemtl glass (Instance) (Instance)
usemap glass (Instance) (Instance)
f 3/3/1 2/2/1 1/1/1
f 2/2/1 3/3/1 4/4/1
f 7/7/2 6/6/2 5/5/2
f 6/6/2 7/7/2 8/8/2
f 3/3/3 9/9/3 4/4/3
f 9/9/3 3/3/3 10/10/3
f 9/9/3 10/10/3 11/11/3
f 12/12/3 11/11/3 10/10/3
f 7/7/3 11/11/3 12/12/3
f 11/11/3 7/7/3 5/5/3
f 5/15/4 13/14/5 11/13/4
f 13/14/5 5/15/4 14/16/5
f 11/19/6 15/18/6 9/17/6
f 15/18/6 11/19/6 13/20/6
f 9/17/7 16/22/8 4/21/7
f 16/22/8 9/17/7 15/18/8
f 18/25/9 3/24/9 17/23/9
f 3/24/9 18/25/9 10/26/9
f 19/27/10 10/26/10 18/25/10
f 10/26/10 19/27/10 12/28/10
f 22/31/11 21/30/11 20/29/11
f 21/30/11 22/31/11 23/32/11
f 21/30/11 23/32/11 24/33/11
f 24/33/11 23/32/11 19/34/11
f 24/33/11 19/34/11 25/35/11
f 18/36/11 25/35/11 19/34/11
f 17/37/11 25/35/11 18/36/11
f 26/38/11 25/35/11 17/37/11
f 25/35/11 26/38/11 27/39/11
f 28/40/11 26/38/11 17/37/11
f 23/43/12 12/42/12 19/41/12
f 12/42/12 23/43/12 7/44/12
f 22/45/10 7/44/10 23/43/10
f 7/48/10 22/47/10 8/46/10
f 17/51/10 1/50/10 28/49/10
f 1/50/10 17/51/10 3/52/10
f 31/55/13 30/54/13 29/53/13
f 30/54/13 31/55/13 32/56/13
f 35/59/14 34/58/14 33/57/14
f 34/58/14 35/59/14 36/60/14
f 38/63/8 33/62/7 37/61/8
f 33/62/7 38/63/8 39/64/7
f 40/65/6 39/64/6 38/63/6
f 39/64/6 40/65/6 41/66/6
f 42/69/5 41/68/4 40/67/5
f 41/68/4 42/69/5 29/70/4
f 30/54/11 41/71/11 29/53/11
f 41/71/11 30/54/11 43/72/11
f 41/71/11 43/72/11 39/73/11
f 44/74/11 39/73/11 43/72/11
f 35/59/11 39/73/11 44/74/11
f 39/73/11 35/59/11 33/57/11
f 4/77/6 34/76/6 2/75/6
f 34/78/6 4/21/6 33/62/6
f 33/80/10 4/77/10 16/79/10
f 33/80/10 16/79/10 37/81/10
f 6/84/6 14/83/6 5/82/6
f 14/83/6 6/84/6 42/85/6
f 42/85/6 6/84/6 29/86/6
f 29/70/6 6/88/6 31/87/6
f 1/91/15 26/90/15 28/89/15
f 2/75/15 26/90/15 1/91/15
f 2/75/15 45/92/15 26/90/15
f 34/76/15 45/92/15 2/75/15
f 34/76/15 46/93/15 45/92/15
f 46/93/15 34/76/15 36/94/15
f 31/97/16 47/96/16 32/95/16
f 47/96/16 31/97/16 6/98/16
f 47/96/16 6/98/16 20/99/16
f 20/99/16 6/98/16 22/45/16
f 22/45/16 6/98/16 8/100/16
f 48/101/16 32/95/16 47/96/16
f 30/104/12 49/103/12 43/102/12
f 49/103/12 30/104/12 50/105/12
f 32/108/10 50/107/10 30/106/10
f 50/107/10 32/108/10 48/109/10
f 43/112/10 51/111/10 44/110/10
f 51/111/10 43/112/10 49/113/10
f 44/110/9 52/115/9 35/114/9
f 52/115/9 44/110/9 51/111/9
f 46/118/3 53/117/3 45/116/3
f 53/117/3 46/118/3 52/119/3
f 53/117/3 52/119/3 54/120/3
f 54/120/3 52/119/3 51/121/3
f 54/120/3 51/121/3 55/122/3
f 49/123/3 55/122/3 51/121/3
f 50/124/3 55/122/3 49/123/3
f 47/125/3 55/122/3 50/124/3
f 55/122/3 47/125/3 56/126/3
f 48/127/3 47/125/3 50/124/3
f 53/130/10 26/129/10 45/128/10
f 26/129/10 53/130/10 27/131/10
f 35/114/10 46/133/10 36/132/10
f 46/133/10 35/114/10 52/115/10
f 47/96/10 21/135/10 56/134/10
f 21/138/10 47/137/10 20/136/10

usemtl stone (Instance) (Instance)
usemap stone (Instance) (Instance)
f 13/20/6 38/63/6 15/18/6
f 38/63/6 13/20/6 40/65/6
f 56/134/12 24/140/12 55/139/12
f 24/140/12 56/134/12 21/135/12
f 15/18/8 37/61/8 16/22/8
f 37/61/8 15/18/8 38/63/8
f 55/143/10 25/142/10 54/141/10
f 25/142/10 55/143/10 24/144/10
f 54/141/9 27/131/9 53/130/9
f 27/131/9 54/141/9 25/142/9
f 14/16/5 40/67/5 13/14/5
f 40/67/5 14/16/5 42/69/5
